<svg width="33" height="33" viewBox="0 0 33 33" fill="none" xmlns="http://www.w3.org/2000/svg">
<circle cx="16.5" cy="16.5" r="16" fill="#EBE2DB" stroke="#F4EFE8"/>
<path d="M25.9653 16.7265L21.7852 12.7444C21.7155 12.6778 21.6227 12.6406 21.5262 12.6406C21.4298 12.6406 21.337 12.6778 21.2673 12.7444L21.2637 12.7491C21.2297 12.7813 21.2027 12.8201 21.1841 12.8631C21.1656 12.9061 21.1561 12.9525 21.1561 12.9993C21.1561 13.0461 21.1656 13.0925 21.1841 13.1355C21.2027 13.1785 21.2297 13.2173 21.2637 13.2495L25.1989 16.9995L21.2637 20.7472C21.2297 20.7794 21.2027 20.8181 21.1841 20.8612C21.1656 20.9042 21.1561 20.9505 21.1561 20.9973C21.1561 21.0442 21.1656 21.0905 21.1841 21.1335C21.2027 21.1766 21.2297 21.2153 21.2637 21.2475L21.2673 21.2522C21.337 21.3189 21.4298 21.356 21.5262 21.356C21.6227 21.356 21.7155 21.3189 21.7852 21.2522L25.9653 17.2702C26.0022 17.2352 26.0316 17.193 26.0516 17.1463C26.0717 17.0995 26.082 17.0492 26.082 16.9983C26.082 16.9475 26.0717 16.8971 26.0516 16.8504C26.0316 16.8037 26.0022 16.7615 25.9653 16.7265Z" fill="#313131"/>
<path d="M7.03469 16.7265L11.2148 12.7444C11.2845 12.6778 11.3773 12.6406 11.4738 12.6406C11.5702 12.6406 11.663 12.6778 11.7327 12.7444L11.7363 12.7491C11.7703 12.7813 11.7973 12.8201 11.8159 12.8631C11.8344 12.9061 11.8439 12.9525 11.8439 12.9993C11.8439 13.0461 11.8344 13.0925 11.8159 13.1355C11.7973 13.1785 11.7703 13.2173 11.7363 13.2495L7.80109 16.9995L11.7363 20.7472C11.7703 20.7794 11.7973 20.8181 11.8159 20.8612C11.8344 20.9042 11.8439 20.9505 11.8439 20.9973C11.8439 21.0442 11.8344 21.0905 11.8159 21.1335C11.7973 21.1766 11.7703 21.2153 11.7363 21.2475L11.7327 21.2522C11.663 21.3189 11.5702 21.356 11.4738 21.356C11.3773 21.356 11.2845 21.3189 11.2148 21.2522L7.03469 17.2702C6.99781 17.2352 6.96845 17.193 6.94838 17.1463C6.92832 17.0995 6.91797 17.0492 6.91797 16.9983C6.91797 16.9475 6.92832 16.8971 6.94838 16.8504C6.96845 16.8037 6.99781 16.7615 7.03469 16.7265Z" fill="#313131"/>
</svg>
