<svg width="27" height="27" viewBox="0 0 27 27" fill="none" xmlns="http://www.w3.org/2000/svg">
<path fill-rule="evenodd" clip-rule="evenodd" d="M18.3492 17.5058L22.9774 22.1351L22.0234 23.0891L17.3851 18.4508C15.8188 19.7423 13.8143 20.3791 11.7898 20.2282C9.7653 20.0774 7.87729 19.1505 6.51975 17.6411C5.16221 16.1317 4.44002 14.1563 4.5039 12.1272C4.56779 10.0981 5.4128 8.17207 6.8626 6.75103C8.3124 5.32999 10.255 4.52374 12.2849 4.50052C14.3149 4.4773 16.2754 5.23891 17.7573 6.62642C19.2393 8.01392 20.1281 9.92012 20.2384 11.9472C20.3487 13.9743 19.6718 15.9657 18.3492 17.5058ZM18.9004 12.3746C18.9004 10.6441 18.213 8.98445 16.9893 7.76077C15.7656 6.5371 14.106 5.84964 12.3754 5.84964C10.6449 5.84964 8.98524 6.5371 7.76156 7.76077C6.53789 8.98445 5.85043 10.6441 5.85043 12.3746C5.85043 14.1052 6.53789 15.7648 7.76156 16.9885C8.98524 18.2122 10.6449 18.8996 12.3754 18.8996C14.106 18.8996 15.7656 18.2122 16.9893 16.9885C18.213 15.7648 18.9004 14.1052 18.9004 12.3746Z" fill="#F4EFE8"/>
</svg>
